<?xml version="1.0" encoding="UTF-8" standalone="no"?>
<!-- Created with Inkscape (http://www.inkscape.org/) -->

<svg
   width="131.10107mm"
   height="45.729168mm"
   id="svg2"
   sodipodi:version="0.32"
   inkscape:version="1.1.2 (0a00cf5339, 2022-02-04)"
   sodipodi:docname="logo_colour.svg"
   inkscape:output_extension="org.inkscape.output.svg.inkscape"
   inkscape:export-filename="/home/igibbs/Sales/media/10mm-gms/logo/logo_colour_1548.png"
   inkscape:export-xdpi="299.91513"
   inkscape:export-ydpi="299.91513"
   version="1.1"
   xmlns:inkscape="http://www.inkscape.org/namespaces/inkscape"
   xmlns:sodipodi="http://sodipodi.sourceforge.net/DTD/sodipodi-0.dtd"
   xmlns:xlink="http://www.w3.org/1999/xlink"
   xmlns="http://www.w3.org/2000/svg"
   xmlns:svg="http://www.w3.org/2000/svg"
   xmlns:rdf="http://www.w3.org/1999/02/22-rdf-syntax-ns#"
   xmlns:cc="http://creativecommons.org/ns#"
   xmlns:dc="http://purl.org/dc/elements/1.1/">
  <defs
     id="defs4">
    <color-profile
       name="ISO-Coated-v2--ECI-"
       xlink:href="../../../../.local/share/color/icc/ISOcoated_v2_eci.icc"
       id="color-profile1219" />
    <inkscape:perspective
       sodipodi:type="inkscape:persp3d"
       inkscape:vp_x="0 : 599.01577 : 1"
       inkscape:vp_y="0 : 1000 : 0"
       inkscape:vp_z="744.09448 : 599.01577 : 1"
       inkscape:persp3d-origin="372.04724 : 423.62207 : 1"
       id="perspective10" />
  </defs>
  <sodipodi:namedview
     id="base"
     pagecolor="#ffffff"
     bordercolor="#666666"
     borderopacity="1.0"
     gridtolerance="10000"
     guidetolerance="10"
     objecttolerance="10"
     inkscape:pageopacity="1"
     inkscape:pageshadow="2"
     inkscape:zoom="2"
     inkscape:cx="118.5"
     inkscape:cy="131.75"
     inkscape:document-units="px"
     inkscape:current-layer="layer1"
     showgrid="false"
     inkscape:window-width="1406"
     inkscape:window-height="945"
     inkscape:window-x="1650"
     inkscape:window-y="314"
     inkscape:window-maximized="0"
     fit-margin-top="0"
     fit-margin-left="0"
     fit-margin-right="0"
     fit-margin-bottom="0"
     inkscape:pagecheckerboard="false"
     units="mm"
     inkscape:showpageshadow="2"
     inkscape:deskcolor="#d1d1d1"
     showguides="false"
     showborder="true">
    <sodipodi:guide
       position="385.96513,305.83663"
       orientation="0,-1"
       id="guide2780" />
  </sodipodi:namedview>
  <metadata
     id="metadata7">
    <rdf:RDF>
      <cc:Work
         rdf:about="">
        <dc:format>image/svg+xml</dc:format>
        <dc:type
           rdf:resource="http://purl.org/dc/dcmitype/StillImage" />
      </cc:Work>
    </rdf:RDF>
  </metadata>
  <g
     inkscape:label="Layer 1"
     inkscape:groupmode="layer"
     id="layer1"
     transform="translate(-257.48701,-198.68667)">
    <text
       xml:space="preserve"
       style="font-style:normal;font-weight:normal;font-size:40px;line-height:1.25;font-family:sans-serif;fill:#000000;fill-opacity:1;stroke:none"
       x="390.42902"
       y="220.51414"
       id="text35814"><tspan
         sodipodi:role="line"
         id="tspan35812"
         x="390.42902"
         y="220.51414" /></text>
    <path
       inkscape:connector-curvature="0"
       id="circle2296"
       d="m 356.3676,248.68577 a 48.880597,48.880597 0 0 1 -48.8806,48.8806 48.880597,48.880597 0 0 1 -48.88059,-48.8806 48.880597,48.880597 0 0 1 48.88059,-48.8806 48.880597,48.880597 0 0 1 48.8806,48.8806 z"
       style="fill:#c6e6f6;fill-opacity:1;stroke:#151616;stroke-width:2.237;stroke-linecap:butt;stroke-linejoin:bevel;stroke-miterlimit:4;stroke-dasharray:none;stroke-dashoffset:112.05;stroke-opacity:1;paint-order:stroke fill markers" />
    <path
       inkscape:connector-curvature="0"
       id="path1623"
       d="m 356.3676,248.73245 a 48.880597,48.880597 0 0 1 -48.8806,48.8806 48.880597,48.880597 0 0 1 -48.88059,-48.8806 48.880597,48.880597 0 0 1 48.88059,-48.8806 48.880597,48.880597 0 0 1 48.8806,48.8806 z"
       style="fill:none;fill-opacity:1;stroke:none;stroke-width:1.49254;stroke-linecap:butt;stroke-linejoin:bevel;stroke-miterlimit:4;stroke-dasharray:none;stroke-dashoffset:112.05;stroke-opacity:1;paint-order:stroke fill markers" />
    <path
       id="path1620"
       style="fill:none;stroke:#151616;stroke-width:1.49254;stroke-linecap:round;stroke-linejoin:round;stroke-miterlimit:4;stroke-dasharray:none;stroke-opacity:1"
       d="m 333.98212,275.47194 -5.64631,0.0171 c -0.88703,0.006 -2.57581,1.23958 -2.57581,1.23958 m -45.07683,-1.25664 5.64631,0.0171 c 0.88703,0.006 2.57581,1.23958 2.57581,1.23958 m -8.22212,-1.25664 5.64631,0.0171 c 0.88703,0.006 2.57581,1.23958 2.57581,1.23958 m -8.29492,-0.54933 c -0.0264,2.69536 2.52684,3.63798 2.98412,3.616 0.37375,-0.004 7.15804,0.009 7.15804,0.009 0,0 1.71439,-2.02422 1.87268,-2.16932 0.98053,-0.91017 2.55823,-1.33427 2.888,-1.32108 l 23.60786,0.0231 c 1.11683,-0.0396 2.47273,1.06566 2.68379,1.28551 l 2.13934,2.16689 7.40532,-0.0212 c 1.64063,-0.11169 2.96922,-2.04676 3.01768,-2.99285 m -46.80401,-21.45015 c -0.005,-0.73403 0.15554,-0.81165 -0.83106,-0.81818 l -2.68,0.0129 c -0.94058,-0.006 -0.89548,0.0515 -0.90837,0.99212 l -0.006,1.11452 c -0.0193,0.65068 0.0451,0.65712 0.79241,0.79885 l 3.57549,0.64424 z m 39.86347,0 c 0.005,-0.73403 -0.15553,-0.81165 0.83106,-0.81818 l 2.68001,0.0129 c 0.94058,-0.006 0.89548,0.0515 0.90837,0.99212 l 0.006,1.11452 c 0.0193,0.65068 -0.0451,0.65712 -0.7924,0.79885 l -3.5755,0.64424 z m -38.04211,0.95461 35.85251,0.10731 m 8.27162,8.27966 c 0,0 -0.75705,2.04849 -2.29343,2.10787 l -7.22911,-0.0594 -1.67366,-1.68021 m -40.90668,-0.36828 c 0,0 0.75706,2.04849 2.29343,2.10787 l 7.22912,-0.0594 1.76951,-1.73763 m -8.08779,-3.73677 c 0.73368,0.20009 6.87634,2.75307 7.22575,2.92777 0.38435,0.20964 2.63618,2.64635 2.77594,2.67431 0.2376,-0.028 10.22712,-0.1334 10.22712,-0.1334 l 2.69905,2.68637 2.49262,-2.61333 10.52315,-0.0203 2.5612,-2.586 6.33636,-2.57901 0.84557,-0.38434 m -33.94027,-13.46874 22.18182,-0.0469 c 1.76751,0.04 4.02536,2.25818 4.60121,3.79241 1.03075,2.60884 2.11788,5.03828 4.07441,6.7952 2.0314,1.82413 4.85732,3.72258 5.92513,5.43192 0.77336,1.403 1.19124,2.3764 1.22759,3.81194 l 0.005,14.69786 c 0.0491,0.89323 -0.31749,1.74395 -1.56802,1.87166 l -6.88506,0.0158 c -1.13093,0.0185 -1.98828,-0.70474 -1.99569,-1.83188 l 0.0215,-2.4928 -32.93665,-0.0247 0.0136,3.00939 c -0.003,0.83163 -0.93977,1.34548 -1.76987,1.33857 l -6.97659,-0.003 c -0.90653,-0.0334 -1.69612,-0.79318 -1.67607,-1.77836 l 0.0349,-15.18667 c 0.2991,-2.1445 1.26219,-3.67556 2.06395,-4.54581 0.1862,-0.23344 0.55218,-0.5965 1.6106,-1.44344 1.05842,-0.84694 2.80928,-2.17775 3.0455,-2.3973 1.50747,-1.53001 2.695,-3.33732 3.65645,-5.20742 0.37761,-0.83561 1.28193,-2.94863 1.28193,-2.94863 0.44583,-1.10528 2.37831,-2.68857 4.06463,-2.85739 z"
       inkscape:connector-curvature="0"
       sodipodi:nodetypes="ccccccccccccccccccccccccccccccccccccccccccccccccccccccccccsccccccccccccccsccccc" />
    <path
       style="fill:#151616;fill-opacity:1;stroke:#151616;stroke-width:1.13933;stroke-linecap:round;stroke-linejoin:round;stroke-miterlimit:4;stroke-dasharray:none;stroke-opacity:1"
       d="m 299.30176,228.71802 8.07408,-23.08705 0.0244,15.27717 8.2828,-0.0308 -8.28061,22.92428 v -15.1086 z"
       id="path2264"
       inkscape:connector-curvature="0"
       sodipodi:nodetypes="ccccccc" />
    <text
       xml:space="preserve"
       style="font-style:normal;font-weight:normal;font-size:93.3366px;line-height:1.25;font-family:sans-serif;fill:#9f2326;fill-opacity:1;stroke:#9d2226;stroke-width:2;stroke-miterlimit:4;stroke-dasharray:none;stroke-opacity:1"
       x="365.54724"
       y="281.40906"
       id="text3374"
       transform="scale(1.0000354,0.9999646)"><tspan
         sodipodi:role="line"
         id="tspan3372"
         x="365.54724"
         y="281.40906"
         style="font-style:normal;font-variant:normal;font-weight:600;font-stretch:normal;font-size:93.3366px;font-family:Poppins;-inkscape-font-specification:'Poppins Semi-Bold';fill:#9f2326;fill-opacity:1;stroke:#9d2226;stroke-width:2;stroke-miterlimit:4;stroke-dasharray:none;stroke-opacity:1">10mm GMS</tspan></text>
    <rect
       style="fill:#9f2326;fill-opacity:1;stroke:#9e2326;stroke-width:1.4641;stroke-opacity:1"
       id="rect29000"
       width="493.63589"
       height="60.431396"
       x="258.21906"
       y="310.35788" />
    <text
       xml:space="preserve"
       style="font-style:normal;font-weight:normal;font-size:48px;line-height:1.25;font-family:sans-serif;fill:#ffffff;fill-opacity:1;stroke:none;stroke-width:2.16284"
       x="289.87738"
       y="357.32559"
       id="text43028"><tspan
         sodipodi:role="line"
         x="289.87738"
         y="357.32559"
         id="tspan43030"
         style="font-style:normal;font-variant:normal;font-weight:300;font-stretch:normal;font-size:48px;font-family:Poppins;-inkscape-font-specification:'Poppins Light';stroke-width:2.16284">ELECTRIC &amp; HYBRID</tspan></text>
    <path
       style="fill:#9f2326;fill-opacity:1;stroke:#9e2226;stroke-width:5.13338;stroke-linecap:butt;stroke-linejoin:miter;stroke-miterlimit:4;stroke-dasharray:none;stroke-opacity:1"
       d="m 367.48715,201.29914 h 385"
       id="path64543" />
    <path
       style="fill:#9f2326;fill-opacity:1;stroke:#9e2226;stroke-width:5.13339;stroke-linecap:butt;stroke-linejoin:miter;stroke-miterlimit:4;stroke-dasharray:none;stroke-opacity:1"
       d="m 367.48715,296.16509 h 385"
       id="path64691" />
  </g>
</svg>
